# Blender 3.3.1
# www.blender.org
mtllib spasssensor.mtl
o Cube
v 0.922099 0.389531 -0.614364
v 0.907038 0.389531 -0.709460
v -0.922099 0.389531 0.614364
v -0.907038 0.389531 0.709460
v -0.863327 0.389531 0.795246
v -0.795246 0.389531 0.863327
v -0.709460 0.389531 0.907038
v -0.614364 0.389531 0.922099
v 1.000000 0.389531 -0.666267
v 0.666267 0.389531 -1.000000
v 0.983666 0.389531 -0.769396
v 0.936263 0.389531 -0.862430
v 0.862430 0.389531 -0.936263
v 0.769396 0.389531 -0.983666
v 0.666267 0.389531 1.000000
v 1.000000 0.389531 0.666267
v 0.769396 0.389531 0.983666
v 0.862430 0.389531 0.936263
v 0.936263 0.389531 0.862430
v 0.983666 0.389531 0.769396
v -0.666267 0.389531 -1.000000
v -1.000000 0.389531 -0.666267
v -0.769396 0.389531 -0.983666
v -0.862430 0.389531 -0.936263
v -0.936263 0.389531 -0.862430
v -0.983666 0.389531 -0.769396
v -1.000000 0.389531 0.666267
v -0.666267 0.389531 1.000000
v -0.983666 0.389531 0.769396
v -0.936263 0.389531 0.862430
v -0.862430 0.389531 0.936263
v -0.769396 0.389531 0.983666
v 0.666267 0.000000 -1.000000
v 1.000000 0.000000 -0.666267
v 0.769396 0.000000 -0.983666
v 0.862430 0.000000 -0.936263
v 0.936263 0.000000 -0.862430
v 0.983666 0.000000 -0.769396
v -0.666267 0.000000 1.000000
v -1.000000 0.000000 0.666267
v -0.769396 0.000000 0.983666
v -0.862430 0.000000 0.936263
v -0.936263 0.000000 0.862430
v -0.983666 0.000000 0.769396
v 1.000000 0.000000 0.666267
v 0.666267 0.000000 1.000000
v 0.983666 0.000000 0.769396
v 0.936263 0.000000 0.862430
v 0.862430 0.000000 0.936263
v 0.769396 0.000000 0.983666
v -1.000000 0.000000 -0.666267
v -0.666267 0.000000 -1.000000
v -0.983666 0.000000 -0.769396
v -0.936263 0.000000 -0.862430
v -0.862430 0.000000 -0.936263
v -0.769396 0.000000 -0.983666
v 0.863327 0.389531 -0.795246
v 0.795246 0.389531 -0.863327
v 0.709460 0.389531 -0.907038
v 0.614364 0.389531 -0.922099
v 0.709460 0.389531 0.907038
v 0.614364 0.389531 0.922099
v 0.795246 0.389531 0.863327
v 0.863327 0.389531 0.795246
v 0.907038 0.389531 0.709460
v 0.922099 0.389531 0.614364
v -0.709460 0.389531 -0.907038
v -0.614364 0.389531 -0.922099
v -0.795246 0.389531 -0.863327
v -0.863327 0.389531 -0.795246
v -0.907038 0.389531 -0.709460
v -0.922099 0.389531 -0.614364
v -0.907038 0.324678 0.709460
v -0.922099 0.324678 0.614364
v 0.709460 0.324678 -0.907038
v 0.795246 0.324678 -0.863327
v 0.795246 0.324678 0.863327
v 0.709460 0.324678 0.907038
v 0.863327 0.324678 -0.795246
v 0.907038 0.324678 -0.709460
v 0.614364 0.324678 0.922099
v 0.614364 0.324678 -0.922099
v 0.922099 0.324678 -0.614364
v -0.863327 0.324678 0.795246
v -0.795246 0.324678 0.863327
v -0.709460 0.324678 0.907038
v -0.614364 0.324678 0.922099
v 0.863327 0.324678 0.795246
v 0.907038 0.324678 0.709460
v 0.922099 0.324678 0.614364
v -0.709460 0.324678 -0.907038
v -0.614364 0.324678 -0.922099
v -0.795246 0.324678 -0.863327
v -0.863327 0.324678 -0.795246
v -0.907038 0.324678 -0.709460
v -0.922099 0.324678 -0.614364
v -0.983964 0.194766 -0.146675
v -1.032270 0.138636 -0.135510
v -0.983964 0.250896 -0.135510
v -1.032270 0.091051 -0.103715
v -0.983964 0.298480 -0.103715
v -1.032270 0.059256 -0.056130
v -0.983964 0.330275 -0.056130
v -1.032270 0.048091 -0.000000
v -0.983964 0.341440 -0.000000
v -1.032270 0.059256 0.056130
v -0.983964 0.330275 0.056130
v -1.032270 0.091051 0.103715
v -0.983964 0.298480 0.103715
v -1.032270 0.138636 0.135510
v -0.983964 0.250896 0.135510
v -1.032270 0.194766 0.146675
v -0.983964 0.194766 0.146675
v -1.032270 0.250896 0.135510
v -0.983964 0.138636 0.135510
v -1.032270 0.298480 0.103715
v -0.983964 0.091051 0.103715
v -1.032270 0.330275 0.056130
v -0.983964 0.059256 0.056130
v -1.032270 0.341440 -0.000000
v -0.983964 0.048091 -0.000000
v -1.032270 0.330275 -0.056130
v -0.983964 0.059256 -0.056130
v -1.032270 0.298480 -0.103715
v -0.983964 0.091051 -0.103715
v -1.032270 0.250896 -0.135510
v -0.983964 0.138636 -0.135510
v -1.032270 0.194766 -0.146675
v -1.032270 0.152279 -0.102571
v -1.032270 0.116261 -0.078504
v -1.032270 0.092195 -0.042486
v -1.032270 0.083744 -0.000000
v -1.032270 0.092195 0.042486
v -1.032270 0.116261 0.078504
v -1.032270 0.152279 0.102571
v -1.032270 0.194766 0.111022
v -1.032270 0.237252 0.102571
v -1.032270 0.273270 0.078504
v -1.032270 0.297336 0.042486
v -1.032270 0.305787 -0.000000
v -1.032270 0.297336 -0.042486
v -1.032270 0.273270 -0.078504
v -1.032270 0.237252 -0.102571
v -1.032270 0.194766 -0.111022
v -1.110195 0.185476 -0.022426
v -1.110195 0.177601 -0.017164
v -1.110195 0.172339 -0.009289
v -1.110195 0.170491 -0.000000
v -1.110195 0.172339 0.009289
v -1.110195 0.177601 0.017164
v -1.110195 0.185476 0.022426
v -1.110195 0.194766 0.024274
v -1.110195 0.204055 0.022426
v -1.110195 0.211930 0.017164
v -1.110195 0.217192 0.009289
v -1.110195 0.219040 -0.000000
v -1.110195 0.217192 -0.009289
v -1.110195 0.211930 -0.017164
v -1.110195 0.204055 -0.022426
v -1.110195 0.194766 -0.024274
v -1.062773 0.194766 0.093672
v -1.085694 0.194766 0.074204
v -1.103828 0.194766 0.045961
v -1.103828 0.177177 0.042462
v -1.085694 0.166369 0.068556
v -1.062773 0.158919 0.086542
v -1.062773 0.158919 -0.086542
v -1.085694 0.166369 -0.068556
v -1.103828 0.177177 -0.042463
v -1.103828 0.194766 -0.045961
v -1.085694 0.194766 -0.074204
v -1.062773 0.194766 -0.093672
v -1.103828 0.212354 -0.042463
v -1.085694 0.223162 -0.068556
v -1.062773 0.230612 -0.086542
v -1.062773 0.230612 0.086542
v -1.085694 0.223162 0.068556
v -1.103828 0.212354 0.042462
v -1.062773 0.128529 -0.066236
v -1.085694 0.142295 -0.052470
v -1.103828 0.162266 -0.032499
v -1.062773 0.261002 0.066236
v -1.085694 0.247236 0.052470
v -1.103828 0.227265 0.032499
v -1.062773 0.108224 -0.035847
v -1.085694 0.126210 -0.028397
v -1.103828 0.152303 -0.017589
v -1.062773 0.281307 0.035847
v -1.085694 0.263321 0.028397
v -1.103828 0.237228 0.017589
v -1.062773 0.101093 -0.000000
v -1.085694 0.120562 -0.000000
v -1.103828 0.148805 -0.000000
v -1.062773 0.288438 -0.000000
v -1.085694 0.268970 -0.000000
v -1.103828 0.240727 -0.000000
v -1.062773 0.108224 0.035847
v -1.085694 0.126210 0.028397
v -1.103828 0.152303 0.017589
v -1.062773 0.281307 -0.035847
v -1.085694 0.263321 -0.028397
v -1.103828 0.237228 -0.017589
v -1.062773 0.128529 0.066236
v -1.085694 0.142295 0.052470
v -1.103828 0.162266 0.032499
v -1.062773 0.261002 -0.066236
v -1.085694 0.247236 -0.052470
v -1.103828 0.227265 -0.032499
v -1.112522 0.194766 -0.000000
vn -0.0000 -0.0000 -1.0000
vn -1.0000 -0.0000 -0.0000
vn -0.0000 1.0000 -0.0000
vn -0.0000 -0.0000 1.0000
vn -0.1564 -0.0000 0.9877
vn -0.4540 -0.0000 0.8910
vn -0.7071 -0.0000 0.7071
vn -0.8910 -0.0000 0.4540
vn -0.9877 -0.0000 0.1564
vn 0.9877 -0.0000 -0.1564
vn 0.8910 -0.0000 -0.4540
vn 0.7071 -0.0000 -0.7071
vn 0.4540 -0.0000 -0.8910
vn 0.1564 -0.0000 -0.9877
vn 0.1564 -0.0000 0.9877
vn 0.4540 -0.0000 0.8910
vn 0.7071 -0.0000 0.7071
vn 0.8910 -0.0000 0.4540
vn 0.9877 -0.0000 0.1564
vn -0.1564 -0.0000 -0.9877
vn -0.4540 -0.0000 -0.8910
vn -0.7071 -0.0000 -0.7071
vn -0.8910 -0.0000 -0.4540
vn -0.9877 -0.0000 -0.1564
vn 1.0000 -0.0000 -0.0000
vn -0.0000 -0.5556 0.8315
vn -0.0000 -0.8315 -0.5556
vn -0.0000 0.8315 -0.5556
vn -0.0000 0.5556 0.8315
vn -0.0000 -0.8315 0.5556
vn -0.0000 -0.5556 -0.8315
vn -0.0000 0.9808 -0.1951
vn -0.0000 0.1951 0.9808
vn -0.0000 -0.9808 0.1951
vn -0.0000 0.1951 -0.9808
vn -0.0000 -0.1951 -0.9808
vn -0.0000 0.9808 0.1951
vn -0.0000 -0.1951 0.9808
vn -0.0000 -0.9808 -0.1951
vn -0.0000 0.5556 -0.8315
vn -0.0000 0.8315 0.5556
vn -0.9580 -0.0559 0.2813
vn -0.9580 -0.0559 -0.2813
vn -0.9580 0.0559 -0.2813
vn -0.9580 0.0559 0.2813
vn -0.9580 -0.1593 -0.2384
vn -0.9580 0.1593 0.2384
vn -0.9580 -0.2384 -0.1593
vn -0.9580 0.2384 0.1593
vn -0.9580 -0.2813 -0.0559
vn -0.9580 0.2813 0.0559
vn -0.9580 -0.2813 0.0559
vn -0.9580 0.2813 -0.0559
vn -0.9580 -0.2384 0.1593
vn -0.9580 0.2384 -0.1593
vn -0.9580 -0.1593 0.2384
vn -0.9580 0.1593 -0.2384
vn -0.4872 0.4852 -0.7261
vn -0.6401 0.4269 -0.6388
vn -0.8367 0.3043 -0.4554
vn -0.4872 -0.4852 0.7261
vn -0.6401 -0.4269 0.6388
vn -0.8367 -0.3043 0.4554
vn -0.4872 0.7261 -0.4852
vn -0.6401 0.6388 -0.4269
vn -0.8367 0.4554 -0.3043
vn -0.4872 -0.7261 0.4852
vn -0.6401 -0.6388 0.4269
vn -0.8367 -0.4554 0.3043
vn -0.4872 0.8565 -0.1704
vn -0.6401 0.7536 -0.1499
vn -0.8367 0.5372 -0.1069
vn -0.4872 -0.8565 0.1704
vn -0.6401 -0.7536 0.1499
vn -0.8367 -0.5372 0.1069
vn -0.4872 0.8565 0.1704
vn -0.6401 0.7536 0.1499
vn -0.8367 0.5372 0.1069
vn -0.4872 -0.8565 -0.1704
vn -0.6401 -0.7536 -0.1499
vn -0.8367 -0.5372 -0.1069
vn -0.4872 0.7261 0.4852
vn -0.6401 0.6388 0.4269
vn -0.8367 0.4554 0.3043
vn -0.4872 -0.7261 -0.4852
vn -0.6401 -0.6388 -0.4269
vn -0.8367 -0.4554 -0.3043
vn -0.4872 0.4852 0.7261
vn -0.6401 0.4269 0.6388
vn -0.8367 0.3043 0.4554
vn -0.4872 -0.4852 -0.7261
vn -0.6401 -0.4269 -0.6388
vn -0.8367 -0.3043 -0.4554
vn -0.4872 0.1704 0.8565
vn -0.6401 0.1499 0.7536
vn -0.8367 0.1069 0.5372
vn -0.4872 0.1704 -0.8565
vn -0.6401 0.1499 -0.7536
vn -0.8367 0.1069 -0.5372
vn -0.4872 -0.1704 -0.8565
vn -0.6401 -0.1499 -0.7536
vn -0.8367 -0.1069 -0.5372
vn -0.4872 -0.1704 0.8565
vn -0.6401 -0.1499 0.7536
vn -0.8367 -0.1069 0.5372
vn -0.9953 0.0954 -0.0190
vn -0.9953 -0.0809 0.0541
vn -0.9953 0.0809 -0.0541
vn -0.9953 -0.0541 0.0809
vn -0.9953 0.0541 -0.0809
vn -0.9953 -0.0190 0.0954
vn -0.9953 -0.0190 -0.0954
vn -0.9953 0.0190 -0.0954
vn -0.9953 0.0190 0.0954
vn -0.9953 -0.0541 -0.0809
vn -0.9953 0.0541 0.0809
vn -0.9953 -0.0809 -0.0541
vn -0.9953 0.0809 0.0541
vn -0.9953 -0.0954 -0.0190
vn -0.9953 0.0954 0.0190
vn -0.9953 -0.0954 0.0190
vt 0.625000 0.541717
vt 0.625000 0.528826
vt 0.625000 0.041717
vt 0.625000 0.028825
vt 0.625000 0.017196
vt 0.625000 0.000000
vt 0.625000 1.000000
vt 0.625000 0.971174
vt 0.625000 0.958283
vt 0.625000 0.541717
vt 0.625000 0.458283
vt 0.625000 0.528826
vt 0.625000 0.517196
vt 0.625000 0.482804
vt 0.625000 0.471175
vt 0.625000 0.791717
vt 0.625000 0.708283
vt 0.625000 0.778826
vt 0.625000 0.767196
vt 0.625000 0.732804
vt 0.625000 0.721175
vt 0.625000 0.291717
vt 0.625000 0.208283
vt 0.625000 0.278825
vt 0.625000 0.267196
vt 0.625000 0.232804
vt 0.625000 0.221175
vt 0.625000 0.041717
vt 0.625000 0.958283
vt 0.625000 0.028825
vt 0.625000 0.017196
vt 0.625000 1.000000
vt 0.625000 0.000000
vt 0.625000 0.971174
vt 0.500000 0.458283
vt 0.500000 0.541717
vt 0.500000 0.471175
vt 0.500000 0.482804
vt 0.500000 0.517196
vt 0.500000 0.528826
vt 0.500000 0.958283
vt 0.500000 0.041717
vt 0.500000 0.971174
vt 0.500000 1.000000
vt 0.500000 0.000000
vt 0.500000 0.017196
vt 0.500000 0.028825
vt 0.500000 0.708283
vt 0.500000 0.791717
vt 0.500000 0.721175
vt 0.500000 0.732804
vt 0.500000 0.767196
vt 0.500000 0.778826
vt 0.500000 0.208283
vt 0.500000 0.291717
vt 0.500000 0.221175
vt 0.500000 0.232804
vt 0.500000 0.267196
vt 0.500000 0.278825
vt 0.625000 0.517196
vt 0.625000 0.482804
vt 0.625000 0.471175
vt 0.625000 0.458283
vt 0.625000 0.778826
vt 0.625000 0.791717
vt 0.625000 0.767196
vt 0.625000 0.732804
vt 0.625000 0.721175
vt 0.625000 0.708283
vt 0.625000 0.278825
vt 0.625000 0.291717
vt 0.625000 0.267196
vt 0.625000 0.232804
vt 0.625000 0.221175
vt 0.625000 0.208283
vt 0.872958 0.721175
vt 0.625000 0.028825
vt 0.875000 0.708283
vt 0.625000 0.041717
vt 0.653825 0.502042
vt 0.625000 0.471175
vt 0.642196 0.507967
vt 0.625000 0.482804
vt 0.642196 0.742033
vt 0.625000 0.767196
vt 0.653825 0.747958
vt 0.625000 0.778826
vt 0.632967 0.517196
vt 0.625000 0.517196
vt 0.627042 0.528826
vt 0.625000 0.528826
vt 0.666717 0.750000
vt 0.625000 0.791717
vt 0.666717 0.500000
vt 0.625000 0.458283
vt 0.625000 0.541717
vt 0.867033 0.732804
vt 0.625000 0.017196
vt 0.857804 0.742033
vt 0.625000 0.000000
vt 0.625000 1.000000
vt 0.846175 0.747958
vt 0.625000 0.971174
vt 0.833283 0.750000
vt 0.625000 0.958283
vt 0.632967 0.732804
vt 0.625000 0.732804
vt 0.627042 0.721175
vt 0.625000 0.721175
vt 0.625000 0.708283
vt 0.846175 0.502042
vt 0.625000 0.278825
vt 0.833283 0.500000
vt 0.625000 0.291717
vt 0.857804 0.507967
vt 0.625000 0.267196
vt 0.867033 0.517196
vt 0.625000 0.232804
vt 0.872958 0.528825
vt 0.625000 0.221175
vt 0.875000 0.541717
vt 0.625000 0.208283
vt 0.000000 0.000000
vt 0.000000 0.000000
vt 0.000000 0.000000
vt 0.000000 0.000000
vt 0.000000 0.000000
vt 0.000000 0.000000
vt 0.000000 0.000000
vt 0.000000 0.000000
vt 0.000000 0.000000
vt 0.000000 0.000000
vt 0.000000 0.000000
vt 0.000000 0.000000
vt 0.000000 0.000000
vt 0.000000 0.000000
vt 0.000000 0.000000
vt 0.000000 0.000000
vt 0.000000 0.000000
vt 0.000000 0.000000
vt 0.000000 0.000000
vt 0.000000 0.000000
vt 0.000000 0.000000
vt 0.000000 0.000000
vt 0.000000 0.000000
vt 0.000000 0.000000
vt 0.000000 0.000000
vt 0.000000 0.000000
vt 0.000000 0.000000
vt 0.000000 0.000000
vt 0.000000 0.000000
vt 0.000000 0.000000
vt 0.000000 0.000000
vt 0.000000 0.000000
vt 0.000000 0.000000
vt 0.000000 0.000000
vt 0.000000 0.000000
vt 0.000000 0.000000
vt 0.000000 0.000000
vt 0.000000 0.000000
vt 0.000000 0.000000
vt 0.000000 0.000000
vt 0.000000 0.000000
vt 0.000000 0.000000
vt 0.000000 0.000000
vt 0.000000 0.000000
vt 0.000000 0.000000
vt 0.000000 0.000000
vt 0.000000 0.000000
vt 0.000000 0.000000
vt 0.000000 0.000000
vt 0.000000 0.000000
vt 0.000000 0.000000
vt 0.000000 0.000000
vt 0.000000 0.000000
vt 0.000000 0.000000
vt 0.000000 0.000000
vt 0.000000 0.000000
vt 0.000000 0.000000
vt 0.000000 0.000000
vt 0.000000 0.000000
vt 0.000000 0.000000
vt 0.000000 0.000000
vt 0.000000 0.000000
vt 0.000000 0.000000
vt 0.000000 0.000000
vt 0.000000 0.000000
vt 0.000000 0.000000
vt 0.000000 0.000000
vt 0.000000 0.000000
vt 0.000000 0.000000
vt 0.000000 0.000000
vt 0.000000 0.000000
vt 0.000000 0.000000
vt 0.000000 0.000000
vt 0.000000 0.000000
vt 0.000000 0.000000
vt 0.000000 0.000000
vt 0.000000 0.000000
vt 0.000000 0.000000
vt 0.000000 0.000000
vt 0.000000 0.000000
vt 0.000000 0.000000
vt 0.000000 0.000000
vt 0.000000 0.000000
vt 0.000000 0.000000
vt 0.000000 0.000000
vt 0.000000 0.000000
vt 0.000000 0.000000
vt 0.000000 0.000000
vt 0.000000 0.000000
vt 0.000000 0.000000
vt 0.000000 0.000000
vt 0.000000 0.000000
vt 0.000000 0.000000
vt 0.000000 0.000000
vt 0.000000 0.000000
vt 0.000000 0.000000
vt 0.000000 0.000000
vt 0.000000 0.000000
vt 0.000000 0.000000
vt 0.000000 0.000000
vt 0.000000 0.000000
vt 0.000000 0.000000
vt 0.000000 0.000000
vt 0.000000 0.000000
vt 0.000000 0.000000
vt 0.000000 0.000000
vt 0.000000 0.000000
vt 0.000000 0.000000
vt 0.000000 0.000000
vt 0.000000 0.000000
vt 0.000000 0.000000
vt 0.000000 0.000000
vt 0.000000 0.000000
s 0
usemtl Material
f 52/55/1 21/22/1 10/11/1 33/35/1
f 40/42/2 27/28/2 22/23/2 51/54/2
f 8/9/1 62/65/1 81/93/1 87/105/1
f 28/29/3 15/16/3 62/65/3 8/9/3
f 46/49/4 15/16/4 28/29/4 39/41/4
f 39/41/5 28/29/5 32/34/5 41/43/5
f 41/43/6 32/34/6 31/32/6 42/44/6
f 42/45/7 31/33/7 30/31/7 43/46/7
f 43/46/8 30/31/8 29/30/8 44/47/8
f 44/47/9 29/30/9 27/28/9 40/42/9
f 9/10/10 34/36/10 38/40/10 11/12/10
f 11/12/11 38/40/11 37/39/11 12/13/11
f 12/13/12 37/39/12 36/38/12 13/14/12
f 13/14/13 36/38/13 35/37/13 14/15/13
f 14/15/14 35/37/14 33/35/14 10/11/14
f 15/16/15 46/49/15 50/53/15 17/18/15
f 17/18/16 50/53/16 49/52/16 18/19/16
f 18/19/17 49/52/17 48/51/17 19/20/17
f 19/20/18 48/51/18 47/50/18 20/21/18
f 20/21/19 47/50/19 45/48/19 16/17/19
f 21/22/20 52/55/20 56/59/20 23/24/20
f 23/24/21 56/59/21 55/58/21 24/25/21
f 24/25/22 55/58/22 54/57/22 25/26/22
f 25/26/23 54/57/23 53/56/23 26/27/23
f 26/27/24 53/56/24 51/54/24 22/23/24
f 34/36/25 9/10/25 16/17/25 45/48/25
f 26/27/3 22/23/3 72/75/3 71/74/3
f 32/34/3 28/29/3 8/9/3 7/8/3
f 18/19/3 19/20/3 64/67/3 63/66/3
f 15/16/3 17/18/3 61/64/3 62/65/3
f 24/25/3 25/26/3 70/73/3 69/72/3
f 21/22/3 23/24/3 67/70/3 68/71/3
f 29/30/3 30/31/3 5/5/3 4/4/3
f 13/14/3 14/15/3 59/62/3 58/61/3
f 19/20/3 20/21/3 65/68/3 64/67/3
f 31/32/3 32/34/3 7/8/3 6/7/3
f 11/12/3 12/13/3 57/60/3 2/2/3
f 16/17/3 9/10/3 1/1/3 66/69/3
f 25/26/3 26/27/3 71/74/3 70/73/3
f 17/18/3 18/19/3 63/66/3 61/64/3
f 27/28/3 29/30/3 4/4/3 3/3/3
f 10/11/3 21/22/3 68/71/3 60/63/3
f 14/15/3 10/11/3 60/63/3 59/62/3
f 23/24/3 24/25/3 69/72/3 67/70/3
f 22/23/3 27/28/3 3/3/3 72/75/3
f 20/21/3 16/17/3 66/69/3 65/68/3
f 30/31/3 31/33/3 6/6/3 5/5/3
f 12/13/3 13/14/3 58/61/3 57/60/3
f 9/10/3 11/12/3 2/2/3 1/1/3
f 83/96/3 80/90/3 79/88/3 76/82/3 75/80/3 82/94/3 92/113/3 91/111/3 93/115/3 94/117/3 95/119/3 96/121/3 74/78/3 73/76/3 84/97/3 85/99/3 86/102/3 87/104/3 81/92/3 78/86/3 77/84/3 88/106/3 89/108/3 90/110/3
f 67/70/16 69/72/16 93/116/16 91/112/16
f 1/1/9 2/2/9 80/91/9 83/96/9
f 3/3/10 4/4/10 73/77/10 74/79/10
f 69/72/17 70/73/17 94/118/17 93/116/17
f 4/4/11 5/5/11 84/98/11 73/77/11
f 58/61/6 59/62/6 75/81/6 76/83/6
f 70/73/18 71/74/18 95/120/18 94/118/18
f 5/5/12 6/6/12 85/100/12 84/98/12
f 61/64/21 63/66/21 77/85/21 78/87/21
f 71/74/19 72/75/19 96/122/19 95/120/19
f 6/7/13 7/8/13 86/103/13 85/101/13
f 63/66/22 64/67/22 88/107/22 77/85/22
f 2/2/8 57/60/8 79/89/8 80/91/8
f 66/69/2 1/1/2 83/96/2 90/110/2
f 64/67/23 65/68/23 89/109/23 88/107/23
f 7/8/14 8/9/14 87/105/14 86/103/14
f 62/65/20 61/64/20 78/87/20 81/93/20
f 60/63/4 68/71/4 92/114/4 82/95/4
f 65/68/24 66/69/24 90/110/24 89/109/24
f 59/62/5 60/63/5 82/95/5 75/81/5
f 72/75/25 3/3/25 74/79/25 96/122/25
f 68/71/15 67/70/15 91/112/15 92/114/15
f 57/60/7 58/61/7 76/83/7 79/89/7
f 117/143/26 115/141/26 110/136/26 108/134/26
f 125/151/27 123/149/27 102/128/27 100/126/27
f 103/129/28 101/127/28 124/150/28 122/148/28
f 111/137/29 109/135/29 116/142/29 114/140/29
f 119/145/30 117/143/30 108/134/30 106/132/30
f 127/153/31 125/151/31 100/126/31 98/124/31
f 105/131/32 103/129/32 122/148/32 120/146/32
f 113/139/33 111/137/33 114/140/33 112/138/33
f 121/147/34 119/145/34 106/132/34 104/130/34
f 99/125/35 97/123/35 128/154/35 126/152/35
f 97/123/36 127/153/36 98/124/36 128/154/36
f 107/133/37 105/131/37 120/146/37 118/144/37
f 115/141/38 113/139/38 112/138/38 110/136/38
f 123/149/39 121/147/39 104/130/39 102/128/39
f 101/127/40 99/125/40 126/152/40 124/150/40
f 109/135/41 107/133/41 118/144/41 116/142/41
f 100/126/2 102/128/2 131/157/2 130/156/2
f 108/134/2 110/136/2 135/161/2 134/160/2
f 116/142/2 118/144/2 139/165/2 138/164/2
f 124/150/2 126/152/2 143/169/2 142/168/2
f 102/128/2 104/130/2 132/158/2 131/157/2
f 110/136/2 112/138/2 136/162/2 135/161/2
f 118/144/2 120/146/2 140/166/2 139/165/2
f 128/154/2 98/124/2 129/155/2 144/170/2
f 126/152/2 128/154/2 144/170/2 143/169/2
f 104/130/2 106/132/2 133/159/2 132/158/2
f 112/138/2 114/140/2 137/163/2 136/162/2
f 120/146/2 122/148/2 141/167/2 140/166/2
f 98/124/2 100/126/2 130/156/2 129/155/2
f 106/132/2 108/134/2 134/160/2 133/159/2
f 114/140/2 116/142/2 138/164/2 137/163/2
f 122/148/2 124/150/2 142/168/2 141/167/2
f 164/190/42 163/189/42 152/178/42 151/177/42
f 170/196/43 169/195/43 145/171/43 160/186/43
f 173/199/44 170/196/44 160/186/44 159/185/44
f 163/189/45 178/204/45 153/179/45 152/178/45
f 169/195/46 181/207/46 146/172/46 145/171/46
f 178/204/47 184/210/47 154/180/47 153/179/47
f 181/207/48 187/213/48 147/173/48 146/172/48
f 184/210/49 190/216/49 155/181/49 154/180/49
f 187/213/50 193/219/50 148/174/50 147/173/50
f 190/216/51 196/222/51 156/182/51 155/181/51
f 193/219/52 199/225/52 149/175/52 148/174/52
f 196/222/53 202/228/53 157/183/53 156/182/53
f 199/225/54 205/231/54 150/176/54 149/175/54
f 202/228/55 208/234/55 158/184/55 157/183/55
f 205/231/56 164/190/56 151/177/56 150/176/56
f 208/234/57 173/199/57 159/185/57 158/184/57
f 142/168/58 143/169/58 175/201/58 206/232/58
f 206/232/59 175/201/59 174/200/59 207/233/59
f 207/233/60 174/200/60 173/199/60 208/234/60
f 134/160/61 135/161/61 166/192/61 203/229/61
f 203/229/62 166/192/62 165/191/62 204/230/62
f 204/230/63 165/191/63 164/190/63 205/231/63
f 141/167/64 142/168/64 206/232/64 200/226/64
f 200/226/65 206/232/65 207/233/65 201/227/65
f 201/227/66 207/233/66 208/234/66 202/228/66
f 133/159/67 134/160/67 203/229/67 197/223/67
f 197/223/68 203/229/68 204/230/68 198/224/68
f 198/224/69 204/230/69 205/231/69 199/225/69
f 140/166/70 141/167/70 200/226/70 194/220/70
f 194/220/71 200/226/71 201/227/71 195/221/71
f 195/221/72 201/227/72 202/228/72 196/222/72
f 132/158/73 133/159/73 197/223/73 191/217/73
f 191/217/74 197/223/74 198/224/74 192/218/74
f 192/218/75 198/224/75 199/225/75 193/219/75
f 139/165/76 140/166/76 194/220/76 188/214/76
f 188/214/77 194/220/77 195/221/77 189/215/77
f 189/215/78 195/221/78 196/222/78 190/216/78
f 131/157/79 132/158/79 191/217/79 185/211/79
f 185/211/80 191/217/80 192/218/80 186/212/80
f 186/212/81 192/218/81 193/219/81 187/213/81
f 138/164/82 139/165/82 188/214/82 182/208/82
f 182/208/83 188/214/83 189/215/83 183/209/83
f 183/209/84 189/215/84 190/216/84 184/210/84
f 130/156/85 131/157/85 185/211/85 179/205/85
f 179/205/86 185/211/86 186/212/86 180/206/86
f 180/206/87 186/212/87 187/213/87 181/207/87
f 137/163/88 138/164/88 182/208/88 176/202/88
f 176/202/89 182/208/89 183/209/89 177/203/89
f 177/203/90 183/209/90 184/210/90 178/204/90
f 129/155/91 130/156/91 179/205/91 167/193/91
f 167/193/92 179/205/92 180/206/92 168/194/92
f 168/194/93 180/206/93 181/207/93 169/195/93
f 136/162/94 137/163/94 176/202/94 161/187/94
f 161/187/95 176/202/95 177/203/95 162/188/95
f 162/188/96 177/203/96 178/204/96 163/189/96
f 143/169/97 144/170/97 172/198/97 175/201/97
f 175/201/98 172/198/98 171/197/98 174/200/98
f 174/200/99 171/197/99 170/196/99 173/199/99
f 144/170/100 129/155/100 167/193/100 172/198/100
f 172/198/101 167/193/101 168/194/101 171/197/101
f 171/197/102 168/194/102 169/195/102 170/196/102
f 135/161/103 136/162/103 161/187/103 166/192/103
f 166/192/104 161/187/104 162/188/104 165/191/104
f 165/191/105 162/188/105 163/189/105 164/190/105
f 156/182/106 157/183/106 209/235/106
f 149/175/107 150/176/107 209/235/107
f 157/183/108 158/184/108 209/235/108
f 150/176/109 151/177/109 209/235/109
f 158/184/110 159/185/110 209/235/110
f 151/177/111 152/178/111 209/235/111
f 160/186/112 145/171/112 209/235/112
f 159/185/113 160/186/113 209/235/113
f 152/178/114 153/179/114 209/235/114
f 145/171/115 146/172/115 209/235/115
f 153/179/116 154/180/116 209/235/116
f 146/172/117 147/173/117 209/235/117
f 154/180/118 155/181/118 209/235/118
f 147/173/119 148/174/119 209/235/119
f 155/181/120 156/182/120 209/235/120
f 148/174/121 149/175/121 209/235/121
