# Blender v2.80 (sub 75) OBJ File: 'untitled.blend'
# www.blender.org
mtllib 3d 90.mtl
o Cylinder
v 0.000001 1.000000 -0.114144
v 0.000001 1.000000 0.114144
v -0.866025 0.500000 -0.114144
v -0.866025 0.500000 0.114144
v -0.866026 -0.500000 -0.114144
v -0.866026 -0.500000 0.114144
v -0.000000 -1.000000 -0.114144
v -0.000000 -1.000000 0.114144
v 0.866025 -0.500000 -0.114144
v 0.866025 -0.500000 0.114144
v 0.866026 0.499999 -0.114144
v 0.866026 0.499999 0.114144
v -1.732050 1.000001 -0.114144
v -1.732050 1.000001 0.114144
v -2.598076 0.500001 -0.114144
v -2.598076 0.500001 0.114144
v -2.598077 -0.499999 -0.114144
v -2.598077 -0.499999 0.114144
v -1.732051 -0.999999 -0.114144
v -1.732051 -0.999999 0.114144
v -0.866026 -0.499999 -0.114144
v -0.866026 -0.499999 0.114144
v -0.866025 0.500000 -0.114144
v -0.866025 0.500000 0.114144
v -0.866024 2.500000 -0.114144
v -0.866024 2.500000 0.114144
v -1.732050 2.000001 -0.114144
v -1.732050 2.000001 0.114144
v -1.732050 1.000001 -0.114144
v -1.732050 1.000001 0.114144
v -0.866025 0.500000 -0.114144
v -0.866025 0.500000 0.114144
v 0.000001 1.000000 -0.114144
v 0.000001 1.000000 0.114144
v 0.000001 2.000000 -0.114144
v 0.000001 2.000000 0.114144
vt 1.000000 0.500000
vt 0.833333 0.500000
vt 0.833333 1.000000
vt 1.000000 1.000000
vt 0.666667 0.500000
vt 0.666667 1.000000
vt 0.500000 0.500000
vt 0.500000 1.000000
vt 0.333333 0.500000
vt 0.333333 1.000000
vt 0.457846 0.370000
vt 0.457846 0.130000
vt 0.250000 0.010000
vt 0.042154 0.130000
vt 0.042154 0.370000
vt 0.250000 0.490000
vt 0.166667 0.500000
vt 0.166667 1.000000
vt -0.000000 0.500000
vt -0.000000 1.000000
vt 0.750000 0.490000
vt 0.542154 0.370000
vt 0.542154 0.130000
vt 0.750000 0.010000
vt 0.957846 0.130000
vt 0.957846 0.370000
vt 1.000000 0.500000
vt 0.833333 0.500000
vt 0.833333 1.000000
vt 1.000000 1.000000
vt 0.666667 0.500000
vt 0.666667 1.000000
vt 0.500000 0.500000
vt 0.500000 1.000000
vt 0.333333 0.500000
vt 0.333333 1.000000
vt 0.457846 0.370000
vt 0.457846 0.130000
vt 0.250000 0.010000
vt 0.042154 0.130000
vt 0.042154 0.370000
vt 0.250000 0.490000
vt 0.166667 0.500000
vt 0.166667 1.000000
vt -0.000000 0.500000
vt -0.000000 1.000000
vt 0.750000 0.490000
vt 0.542154 0.370000
vt 0.542154 0.130000
vt 0.750000 0.010000
vt 0.957846 0.130000
vt 0.957846 0.370000
vt 1.000000 0.500000
vt 0.833333 0.500000
vt 0.833333 1.000000
vt 1.000000 1.000000
vt 0.666667 0.500000
vt 0.666667 1.000000
vt 0.500000 0.500000
vt 0.500000 1.000000
vt 0.333333 0.500000
vt 0.333333 1.000000
vt 0.457846 0.370000
vt 0.457846 0.130000
vt 0.250000 0.010000
vt 0.042154 0.130000
vt 0.042154 0.370000
vt 0.250000 0.490000
vt 0.166667 0.500000
vt 0.166667 1.000000
vt -0.000000 0.500000
vt -0.000000 1.000000
vt 0.750000 0.490000
vt 0.542154 0.370000
vt 0.542154 0.130000
vt 0.750000 0.010000
vt 0.957846 0.130000
vt 0.957846 0.370000
vn -0.5000 0.8660 0.0000
vn -1.0000 0.0000 0.0000
vn -0.5000 -0.8660 0.0000
vn 0.5000 -0.8660 0.0000
vn 0.0000 -0.0000 1.0000
vn 1.0000 -0.0000 0.0000
vn 0.5000 0.8660 0.0000
vn 0.0000 0.0000 -1.0000
usemtl Material.003
s off
f 1/1/1 3/2/1 4/3/1 2/4/1
f 3/2/2 5/5/2 6/6/2 4/3/2
f 5/5/3 7/7/3 8/8/3 6/6/3
f 7/7/4 9/9/4 10/10/4 8/8/4
f 4/11/5 6/12/5 8/13/5 10/14/5 12/15/5 2/16/5
f 9/9/6 11/17/6 12/18/6 10/10/6
f 11/17/7 1/19/7 2/20/7 12/18/7
f 1/21/8 11/22/8 9/23/8 7/24/8 5/25/8 3/26/8
f 13/27/1 15/28/1 16/29/1 14/30/1
f 15/28/2 17/31/2 18/32/2 16/29/2
f 17/31/3 19/33/3 20/34/3 18/32/3
f 19/33/4 21/35/4 22/36/4 20/34/4
f 16/37/5 18/38/5 20/39/5 22/40/5 24/41/5 14/42/5
f 21/35/6 23/43/6 24/44/6 22/36/6
f 23/43/7 13/45/7 14/46/7 24/44/7
f 13/47/8 23/48/8 21/49/8 19/50/8 17/51/8 15/52/8
f 25/53/1 27/54/1 28/55/1 26/56/1
f 27/54/2 29/57/2 30/58/2 28/55/2
f 29/57/3 31/59/3 32/60/3 30/58/3
f 31/59/4 33/61/4 34/62/4 32/60/4
f 28/63/5 30/64/5 32/65/5 34/66/5 36/67/5 26/68/5
f 33/61/6 35/69/6 36/70/6 34/62/6
f 35/69/7 25/71/7 26/72/7 36/70/7
f 25/73/8 35/74/8 33/75/8 31/76/8 29/77/8 27/78/8
